# xmcd
#
# Track frame offsets: 
#        150
#        14402
#        23972
#        37525
#        50057
#        62147
#        72542
#        86617
#        99802
#        109485
#        121055
#        131770
#        144195
#        155580
#        167585
#        179790
#        193412
#        203985
#        214750
#        226957
#        239832
#
# Disc length: 3465 seconds
#
# Revision: 0
# Processed by: cddbd v1.4PL0 Copyright (c) Steve Scherf et al.
# Submitted via: ExactAudioCopy v0.90b3
#
DISCID=360d8715
DTITLE=George Jones - The Grand Tour and Alone Again
DYEAR=1900
DGENRE=Country
TTITLE0=The Grand Tour
TTITLE1=Darlin'
TTITLE2=Pass Me By (If You're Only Passing Through)
TTITLE3=She'll Love The One She's With
TTITLE4=Once You've Had The Best
TTITLE5=The Weatherman
TTITLE6=Borrowed Angel
TTITLE7=She Told Me So
TTITLE8=Mary Don't Go 'Round
TTITLE9=Who Will I Be Loving Now
TTITLE10=Our Private Life
TTITLE11=A Drunk Can't Be A Man
TTITLE12=Ain't Nobody Gonna Miss Me
TTITLE13=Stand On My Own Two Knees
TTITLE14=You're The Best Living
TTITLE15=Over Something Good
TTITLE16=Her Name Is...
TTITLE17=I'm All She's Got
TTITLE18=She Needs Me
TTITLE19=Right Now I'd Come Back And Melt In Her Arms
TTITLE20=Diary Of My Mind
EXTD=
EXTT0=
EXTT1=
EXTT2=
EXTT3=
EXTT4=
EXTT5=
EXTT6=
EXTT7=
EXTT8=
EXTT9=
EXTT10=
EXTT11=
EXTT12=
EXTT13=
EXTT14=
EXTT15=
EXTT16=
EXTT17=
EXTT18=
EXTT19=
EXTT20=
PLAYORDER=
